<svg xmlns="http://www.w3.org/2000/svg" width="46" height="46" viewBox="0 0 46 46">
  <g id="Groupe_1113" data-name="Groupe 1113" transform="translate(-106.152 -484.152)">
    <rect id="Rectangle_740" data-name="Rectangle 740" width="46" height="46" rx="23" transform="translate(106.152 484.152)" fill="#ffe29c"/>
    <g id="Groupe_663" data-name="Groupe 663" transform="translate(119.228 497.227)">
      <g id="Groupe_664" data-name="Groupe 664" transform="translate(0 0)">
        <path id="Tracé_762" data-name="Tracé 762" d="M17.924,3.92A9.657,9.657,0,0,0,12.1.235,9.7,9.7,0,0,0,3.938,2.067,9.715,9.715,0,0,0,.226,7.918c-.091.423-.128.86-.19,1.29-.01.07-.024.139-.037.208v1.172c.052.378.086.76.156,1.134A9.868,9.868,0,0,0,4.9,18.592a9.512,9.512,0,0,0,4.363,1.376,1.1,1.1,0,0,1,.15.032h1.043V18.724l-.007.006v-3.4h.007v-.913h0V10.5h9.532a9.685,9.685,0,0,0-2.06-6.584M8.378,1.03c.018.021.038.042.058.063a.9.9,0,0,0-.16.094A12.286,12.286,0,0,0,5.588,4.6a.286.286,0,0,1-.3.18c-.839-.008-1.679,0-2.518,0H2.53A9.212,9.212,0,0,1,8.378,1.03m1.172.254V4.769H6.507A11.306,11.306,0,0,1,9.55,1.285M1.106,8.026A8.2,8.2,0,0,1,1.919,5.8a.263.263,0,0,1,.18-.129c.981-.008,1.963-.007,2.98-.007A11.774,11.774,0,0,0,4.217,9.6H.866c.08-.535.135-1.058.24-1.571m.878,6.289A8.907,8.907,0,0,1,.9,10.562a.228.228,0,0,1,.01-.053h3.3a11.4,11.4,0,0,0,.863,3.917H4.4c-.735,0-1.471,0-2.206,0a.286.286,0,0,1-.215-.107m.61,1h.625c.71,0,1.419,0,2.129,0a.262.262,0,0,1,.2.1,13.33,13.33,0,0,0,2.813,3.528,9.066,9.066,0,0,1-5.768-3.629M5.119,10.5H9.547v3.913c-.07,0-.133.008-.2.008-1.036,0-2.07,0-3.105,0a.253.253,0,0,1-.273-.18,10.466,10.466,0,0,1-.854-3.525c0-.069,0-.139,0-.221m4.433,8.221a11.347,11.347,0,0,1-3.025-3.393H9.551Zm0-9.13H5.069c.086-.6.125-1.184.264-1.748.17-.69.422-1.361.649-2.037a.232.232,0,0,1,.166-.138c1.114-.008,2.227-.006,3.34,0a.265.265,0,0,1,.063.018ZM17.47,4.777h-1.3c-.5,0-1,0-1.5,0a.264.264,0,0,1-.2-.1A12.782,12.782,0,0,0,11.635,1.1a.534.534,0,0,1-.053-.079A9.226,9.226,0,0,1,17.47,4.777M10.456,1.29a11.3,11.3,0,0,1,3.036,3.475H10.456Zm4.422,8.3H10.449V5.665h2.539c.28,0,.561-.006.839.006a.233.233,0,0,1,.176.1,10.225,10.225,0,0,1,.885,3.754c0,.018-.006.038-.01.07M19.09,9.6H15.826c-.1-.674-.169-1.347-.312-2s-.36-1.281-.547-1.931h1.7c.4,0,.806,0,1.208,0a.245.245,0,0,1,.185.091A8.9,8.9,0,0,1,19.1,9.542a.477.477,0,0,1-.01.058" transform="translate(0 0.001)" stroke="#000" stroke-width="0.5"/>
        <path id="Tracé_763" data-name="Tracé 763" d="M103.768,80.924h-.009a2.773,2.773,0,0,0-1.954.813l-.393.393a.582.582,0,0,0,0,.825.593.593,0,0,0,.822,0l.394-.394a1.61,1.61,0,1,1,2.32,2.233l-.045.045-.394.394a.583.583,0,0,0,.825.823l.393-.393a2.774,2.774,0,0,0,.005-3.922,2.792,2.792,0,0,0-1.964-.815" transform="translate(-86.973 -69.523)" stroke="#000" stroke-width="0.5"/>
        <path id="Tracé_764" data-name="Tracé 764" d="M85.137,104.6l-.394.394a1.61,1.61,0,0,1-2.32-2.235l.044-.043.392-.393a.582.582,0,1,0-.823-.824l-.393.393a2.773,2.773,0,0,0,1.96,4.736h.011a2.775,2.775,0,0,0,1.954-.812l.392-.393a.584.584,0,0,0,0-.825.594.594,0,0,0-.822,0" transform="translate(-69.442 -87.052)" stroke="#000" stroke-width="0.5"/>
        <path id="Tracé_765" data-name="Tracé 765" d="M99.938,96.556a.594.594,0,0,0-.822,0l-2.682,2.68a.583.583,0,0,0,0,.823h0a.582.582,0,0,0,.823,0l2.682-2.679a.582.582,0,0,0,0-.825" transform="translate(-82.69 -82.8)" stroke="#000" stroke-width="0.5"/>
      </g>
    </g>
  </g>
</svg>
