<svg xmlns="http://www.w3.org/2000/svg" width="46" height="46" viewBox="0 0 46 46">
  <g id="Groupe_1102" data-name="Groupe 1102" transform="translate(-106.152 -484.152)">
    <rect id="Rectangle_740" data-name="Rectangle 740" width="46" height="46" rx="23" transform="translate(106.152 484.152)" fill="#ffc5af"/>
    <g id="Link" transform="translate(120.123 498.123)">
      <path id="Tracé_664" data-name="Tracé 664" d="M12.466.5A6.05,6.05,0,0,0,8.158,2.284l-.889.89a1.129,1.129,0,0,0,0,1.6,1.156,1.156,0,0,0,1.6,0l.889-.889A3.834,3.834,0,1,1,15.177,9.3l-.89.889a1.129,1.129,0,0,0,1.6,1.6l.889-.89A6.089,6.089,0,0,0,12.466.5ZM6.589,18.559A6.053,6.053,0,0,0,10.9,16.777l.888-.89a1.128,1.128,0,0,0,0-1.6,1.156,1.156,0,0,0-1.6,0L9.3,15.18A3.834,3.834,0,1,1,3.877,9.758l.889-.889a1.129,1.129,0,0,0-1.6-1.6l-.889.889a6.089,6.089,0,0,0,4.308,10.4Z" transform="translate(-0.5 -0.503)" stroke="#000" stroke-width="0.3"/>
      <path id="Tracé_665" data-name="Tracé 665" d="M9.184,16.97a1.144,1.144,0,0,0,1.619,0l6.156-6.156a1.145,1.145,0,0,0,0-1.619,1.172,1.172,0,0,0-1.619,0L9.184,15.351a1.145,1.145,0,0,0,0,1.619Z" transform="translate(-4.044 -4.055)" stroke="#000" stroke-width="0.3"/>
    </g>
  </g>
</svg>
