<svg xmlns="http://www.w3.org/2000/svg" width="21.656" height="27.07" viewBox="0 0 21.656 27.07">
  <path id="_3d55f665ad5f85b04a2603aae88c26dc" data-name="3d55f665ad5f85b04a2603aae88c26dc" d="M14.828,16.889a1.354,1.354,0,0,0-1.354,1.354V22.3a1.354,1.354,0,0,0,2.707,0V18.242A1.354,1.354,0,0,0,14.828,16.889ZM21.6,11.475V8.768a6.768,6.768,0,1,0-13.535,0v2.707A4.061,4.061,0,0,0,4,15.535V25.01A4.061,4.061,0,0,0,8.061,29.07H21.6a4.061,4.061,0,0,0,4.061-4.061V15.535A4.061,4.061,0,0,0,21.6,11.475ZM10.768,8.768a4.061,4.061,0,1,1,8.121,0v2.707H10.768ZM22.949,25.01A1.354,1.354,0,0,1,21.6,26.363H8.061A1.354,1.354,0,0,1,6.707,25.01V15.535a1.354,1.354,0,0,1,1.354-1.354H21.6a1.354,1.354,0,0,1,1.354,1.354Z" transform="translate(-4 -2)"/>
</svg>
