<svg xmlns="http://www.w3.org/2000/svg" xmlns:xlink="http://www.w3.org/1999/xlink" width="171.196" height="60.676" viewBox="0 0 171.196 60.676">
  <defs>
    <clipPath id="clip-path">
      <rect id="Rectangle_1" data-name="Rectangle 1" width="171.196" height="60.676" fill="none"/>
    </clipPath>
  </defs>
  <g id="Groupe_1" data-name="Groupe 1" clip-path="url(#clip-path)">
    <path id="Tracé_1" data-name="Tracé 1" d="M24.791,4.187a12.487,12.487,0,0,0-8.7-3.151H0V35.208H6.165v-11.1a6.761,6.761,0,0,1,0-6.5V6.841h9.517a6.632,6.632,0,0,1,4.493,1.594,5.094,5.094,0,0,1,1.809,4.059,4.961,4.961,0,0,1-1.805,4,6.726,6.726,0,0,1-4.5,1.562H10.437A3.265,3.265,0,0,0,10.6,23.76h5.318a12.761,12.761,0,0,0,8.818-3.149A10.566,10.566,0,0,0,28.268,12.4a10.637,10.637,0,0,0-3.477-8.211" transform="translate(0 -0.102)"/>
    <path id="Tracé_2" data-name="Tracé 2" d="M53.572,11.646A11.776,11.776,0,0,0,50.487,9.87a13.984,13.984,0,0,0-11.952.941A13.022,13.022,0,0,0,33.7,15.8,14.16,14.16,0,0,0,32,22.682a14.106,14.106,0,0,0,1.71,6.869,12.9,12.9,0,0,0,4.82,4.955,13.544,13.544,0,0,0,6.987,1.834,11.763,11.763,0,0,0,8-2.789L53.469,35.6H59.55V9.688H53.572ZM51.623,28.67a7.885,7.885,0,0,1-5.732,2.214,7.42,7.42,0,0,1-5.6-2.394,8.254,8.254,0,0,1-2.268-5.856,8.214,8.214,0,0,1,2.267-5.844,7.441,7.441,0,0,1,5.6-2.382,7.9,7.9,0,0,1,5.721,2.215,8.045,8.045,0,0,1,2.268,6.01,8.1,8.1,0,0,1-2.257,6.036" transform="translate(-3.159 -0.884)"/>
    <path id="Tracé_3" data-name="Tracé 3" d="M78.361,25.922,70.824,9.768H64.476L75.2,32.37,68.448,45.8H74.9L92.25,9.768H85.9Z" transform="translate(-6.367 -0.964)"/>
    <path id="Tracé_4" data-name="Tracé 4" d="M116.233,10.093a11.556,11.556,0,0,0-5.3-1.194,11.866,11.866,0,0,0-3.264.431,9.014,9.014,0,0,0-2.359.985,7.9,7.9,0,0,0-1.5,1.249c-.125.134-.231.251-.321.353V9.682H97.46V35.6h6.026V21.062a6.367,6.367,0,0,1,1.925-4.945,6.822,6.822,0,0,1,4.734-1.762,4.9,4.9,0,0,1,3.842,1.535,6.3,6.3,0,0,1,1.418,4.389V35.6h6.026V19.757a11.932,11.932,0,0,0-1.416-5.948,9.08,9.08,0,0,0-3.782-3.716" transform="translate(-9.623 -0.878)"/>
    <path id="Tracé_5" data-name="Tracé 5" d="M133.219,34.505a13.534,13.534,0,0,0,6.987,1.835,11.765,11.765,0,0,0,8-2.79l-.038,2.054h6.081V9.687h-5.979v1.958a11.754,11.754,0,0,0-3.084-1.775,13.989,13.989,0,0,0-11.952.94,13.019,13.019,0,0,0-4.83,4.99,14.166,14.166,0,0,0-1.71,6.881,14.1,14.1,0,0,0,1.71,6.869,12.9,12.9,0,0,0,4.82,4.954m1.763-17.715a7.442,7.442,0,0,1,5.6-2.383,7.9,7.9,0,0,1,5.721,2.216,8.045,8.045,0,0,1,2.268,6.01,8.1,8.1,0,0,1-2.257,6.036,7.888,7.888,0,0,1-5.732,2.214,7.419,7.419,0,0,1-5.6-2.394,8.25,8.25,0,0,1-2.268-5.856,8.214,8.214,0,0,1,2.267-5.844" transform="translate(-12.51 -0.884)"/>
    <path id="Tracé_6" data-name="Tracé 6" d="M168.687,20.184a6.367,6.367,0,0,1,1.925-4.945,6.822,6.822,0,0,1,4.734-1.762,4.9,4.9,0,0,1,3.842,1.535,6.3,6.3,0,0,1,1.418,4.389V34.72h6.026V18.878a11.934,11.934,0,0,0-1.416-5.948,9.088,9.088,0,0,0-3.782-3.715,11.559,11.559,0,0,0-5.3-1.194,11.866,11.866,0,0,0-3.264.431,9,9,0,0,0-2.359.985,7.924,7.924,0,0,0-1.5,1.248c-.125.135-.231.252-.321.354V0l-6.026.981V34.72h6.026Z" transform="translate(-16.062 0)"/>
    <path id="Tracé_7" data-name="Tracé 7" d="M135.737,45.032h-8.916v19.7h.844v-7.8h8.073c4.428,0,6.416-2.56,6.416-5.965s-1.958-5.934-6.416-5.934m0,11.145h-8.073V45.785h8.073c4.036,0,5.572,2.229,5.572,5.18s-1.537,5.211-5.572,5.211" transform="translate(-12.523 -4.446)"/>
    <path id="Tracé_8" data-name="Tracé 8" d="M162.1,50.814c0-3.313-1.9-5.782-6.265-5.782h-9.067v19.7h.844v-8.1h7.741l6.385,8.1h1.085l-6.416-8.1c3.946-.211,5.692-2.651,5.692-5.814m-14.488,5.061V45.785h8.223c3.916,0,5.422,2.168,5.422,5.03s-1.476,5.061-5.422,5.061Z" transform="translate(-14.493 -4.446)"/>
    <path id="Tracé_9" data-name="Tracé 9" d="M177.174,44.6c-6.145,0-10.482,4.338-10.482,10.241s4.337,10.242,10.482,10.242,10.482-4.338,10.482-10.242S183.318,44.6,177.174,44.6m0,19.729a9.489,9.489,0,1,1,9.639-9.488,9.233,9.233,0,0,1-9.639,9.488" transform="translate(-16.46 -4.403)"/>
  </g>
</svg>
