<svg xmlns="http://www.w3.org/2000/svg" xmlns:xlink="http://www.w3.org/1999/xlink" width="60" height="60" viewBox="0 0 60 60"><defs><clipPath id="a"><rect width="60" height="60"/></clipPath></defs><g transform="translate(0 -2.001)"><g transform="translate(0 2.001)" clip-path="url(#a)"><path d="M30.157,0C7.258,0,0,7.257,0,30.156S7.258,60.312,30.157,60.312s30.156-7.257,30.156-30.157S53.055,0,30.157,0m0,55.6c-19.317,0-25.439-6.122-25.439-25.439S10.839,4.717,30.157,4.717s25.438,6.122,25.438,25.439S49.474,55.6,30.157,55.6" transform="translate(0 -0.001)"/><path d="M45.764,21.054a11.225,11.225,0,0,0-7.819-2.831H23.487V48.929h5.539V38.956a6.079,6.079,0,0,1,0-5.839V23.439h8.552a5.958,5.958,0,0,1,4.037,1.433,4.573,4.573,0,0,1,1.625,3.647,4.458,4.458,0,0,1-1.622,3.59,6.042,6.042,0,0,1-4.04,1.4H32.865a2.933,2.933,0,0,0,.151,5.129h4.778a11.466,11.466,0,0,0,7.924-2.829,9.493,9.493,0,0,0,3.17-7.38,9.56,9.56,0,0,0-3.124-7.379" transform="translate(-2.989 -2.32)"/></g></g></svg>