<svg xmlns="http://www.w3.org/2000/svg" width="46" height="46" viewBox="0 0 46 46">
  <g id="Groupe_1172" data-name="Groupe 1172" transform="translate(-106.152 -484.152)">
    <rect id="Rectangle_740" data-name="Rectangle 740" width="46" height="46" rx="23" transform="translate(106.152 484.152)" fill="#e3bbff"/>
    <g id="Groupe_1111" data-name="Groupe 1111" transform="translate(117.152 498.716)">
      <g id="Groupe_671" data-name="Groupe 671" transform="translate(0 0)">
        <path id="Tracé_760" data-name="Tracé 760" d="M23.844,12.426A3.029,3.029,0,0,0,22.638,9.8a7.764,7.764,0,0,1-.663-.537c-3.423-2.8-6.955-5.454-10.48-8.118a1.535,1.535,0,0,0-1.033-.42,2.313,2.313,0,0,1-1.5-.423A1.888,1.888,0,0,0,6.878.324c-1.994,1.165-4,2.305-6.005,3.455a1.427,1.427,0,0,0-.741.827c-.417,1.489.21,2.7,1.058,4.014.176-.891.308-1.628.471-2.358.239-1.073,1.021-1.356,1.9-.685,3.489,2.682,6.965,5.381,10.467,8.047a4.221,4.221,0,0,1,1.6,2.4,1.044,1.044,0,0,0,1.439.77,6.1,6.1,0,0,0,.819-.392c1.766-.953,3.542-1.889,5.229-2.981.368-.237.774-.487.736-1m-2.061-1.7c-1.7.983-3.41,1.96-5.107,2.953a.67.67,0,0,1-.833-.039c-1.107-.827-9.3-7.195-10.421-8.01-.276-.2-.3-.357.013-.539q2.657-1.522,5.31-3.054a.465.465,0,0,1,.571.047c1.143.844,9.374,7.227,10.518,8.069.1.076.226.147.226.269-.034.189-.164.238-.277.3" transform="translate(0 0)" stroke="#000" stroke-width="0.2"/>
        <path id="Tracé_761" data-name="Tracé 761" d="M13.895,51.91c.208-.933.374-1.827.613-2.7.15-.55.6-.622,1.124-.223q4.647,3.571,9.289,7.149c.451.347.9.691,1.353,1.041a4.056,4.056,0,0,1,1.318,2.263c.071.255-.062.31-.275.225a2.09,2.09,0,0,1-.29-.175Q21.995,56.446,16.967,53.4a1.789,1.789,0,0,0-1.118-.3,2.514,2.514,0,0,1-1.843-.873.321.321,0,0,1-.111-.311" transform="translate(-12.299 -43.152)" stroke="#000" stroke-width="0.2"/>
      </g>
    </g>
  </g>
</svg>
